<?xml version="1.0" encoding="UTF-8"?>
<svg width="169px" height="64px" viewBox="0 0 169 64" version="1.1" xmlns="http://www.w3.org/2000/svg" xmlns:xlink="http://www.w3.org/1999/xlink">
    <!-- Generator: Sketch 58 (84663) - https://sketch.com -->
    <title>logo-kindergarten</title>
    <desc>Created with Sketch.</desc>
    <g id="Page-1" stroke="none" stroke-width="1" fill="none" fill-rule="evenodd">
        <g id="logo-kindergarten" transform="translate(0.000000, -1.000000)" fill="#FFFFFF" fill-rule="nonzero">
            <path d="M41.035,51.461 C41.035,46.788 37.226,43 32.528,43 C27.829,43 24.021,46.788 24.021,51.461 C24.021,56.134 24.021,65 24.021,65 L32.528,56.538 L41.035,65 C41.035,65 41.035,56.134 41.035,51.461 Z" id="Path"></path>
            <path d="M20.231,49.792 C24.287,47.452 25.676,42.27 23.334,38.217 C20.993,34.165 15.806,32.777 11.75,35.116 C7.694,37.456 0,41.895 0,41.895 L11.584,44.996 L8.48,56.57 C8.48,56.57 16.175,52.131 20.231,49.792 Z" id="Path"></path>
            <path d="M11.73,30.899 C15.779,33.234 20.956,31.848 23.294,27.803 C25.631,23.757 24.244,18.584 20.195,16.249 C16.146,13.913 8.465,9.483 8.465,9.483 L11.564,21.036 L0,24.132 C0,24.132 7.681,28.563 11.73,30.899 Z" id="Path"></path>
            <path d="M24.021,14.538 C24.021,19.211 27.829,23 32.528,23 C37.226,23 41.035,19.211 41.035,14.538 C41.035,9.865 41.035,0.999 41.035,0.999 L32.528,9.461 L24.021,0.999 C24.021,0.999 24.021,9.865 24.021,14.538 Z" id="Path"></path>
            <path d="M44.529,16.803 C40.609,19.05 39.267,24.026 41.53,27.919 C43.792,31.81 48.804,33.144 52.724,30.897 C56.643,28.65 64.079,24.387 64.079,24.387 L52.885,21.409 L55.884,10.293 C55.884,10.293 48.448,14.555 44.529,16.803 Z" id="Path"></path>
            <path d="M52.722,35.065 C48.821,32.828 43.831,34.155 41.579,38.029 C39.326,41.904 40.663,46.858 44.565,49.095 C48.466,51.332 55.868,55.575 55.868,55.575 L52.882,44.51 L64.025,41.545 C64.025,41.545 56.624,37.301 52.722,35.065 Z" id="Path"></path>
            <path d="M81.234,29.742 C81.0779992,29.533999 81,29.2740016 81,28.962 C81,28.5113311 81.2253311,28.1300016 81.676,27.818 C81.9186679,27.6619992 82.1699987,27.584 82.43,27.584 C82.7940018,27.584 83.140665,27.748665 83.47,28.078 C83.9900026,28.615336 84.5316639,29.0139987 85.095,29.274 C85.6583362,29.5340013 86.3386627,29.664 87.136,29.664 C88.4880068,29.6119997 89.164,29.1006715 89.164,28.13 C89.164,27.6273308 88.9343356,27.2460013 88.475,26.986 C88.0615979,26.7519988 87.4411135,26.5180008 86.6135311,26.2840003 L86.33,26.206 C85.3246616,25.9286653 84.5056698,25.6513347 83.873,25.374 C83.2403302,25.0966653 82.6943356,24.6763361 82.235,24.113 C81.7756644,23.5496638 81.546,22.7913381 81.546,21.838 C81.546,21.0059958 81.784331,20.2823364 82.261,19.667 C82.737669,19.0516636 83.3616628,18.5750017 84.133,18.237 C84.9043372,17.8989983 85.723329,17.73 86.59,17.73 C87.4740044,17.73 88.3579956,17.894665 89.242,18.224 C90.1260044,18.553335 90.8193308,19.0386635 91.322,19.68 C91.5473345,19.9573347 91.66,20.2693316 91.66,20.616 C91.66,21.0146687 91.495335,21.3439987 91.166,21.604 C90.9233321,21.7946676 90.6460016,21.89 90.334,21.89 C89.9526648,21.89 89.6406679,21.7686679 89.398,21.526 C89.0859984,21.1446648 88.6830025,20.8413345 88.189,20.616 C87.6949975,20.3906655 87.1360031,20.278 86.512,20.278 C85.1946601,20.278 84.536,20.7546619 84.536,21.708 C84.536,22.0893352 84.6573321,22.3969988 84.9,22.631 C85.1426679,22.8650012 85.4503315,23.0469993 85.823,23.177 L86.1309378,23.2801876 C86.4673123,23.3890625 86.8889975,23.5149993 87.396,23.658 C88.3320047,23.9180013 89.1119969,24.1866653 89.736,24.464 C90.3600031,24.7413347 90.8886645,25.1659971 91.322,25.738 C91.7553355,26.3100029 91.972,27.0639953 91.972,28 C91.972,28.8493376 91.7206692,29.5903302 91.218,30.223 C90.7153308,30.8556698 90.0696706,31.336665 89.281,31.666 C88.4923294,31.995335 87.6820042,32.16 86.85,32.16 C85.7059943,32.16 84.6400049,31.9693352 83.652,31.588 C82.6639951,31.2066648 81.8580031,30.5913376 81.234,29.742 Z M110.614,17.73 C112.330009,17.73 113.51733,18.2543281 114.176,19.303 C114.83467,20.3516719 115.164,21.8033241 115.164,23.658 L115.164,30.314 C115.164,30.7646689 115.016668,31.1416651 114.722,31.445 C114.427332,31.7483349 114.054669,31.9 113.604,31.9 C113.153331,31.9 112.780668,31.7483349 112.486,31.445 C112.191332,31.1416651 112.044,30.7646689 112.044,30.314 L112.044,23.658 C112.044,22.7046619 111.857669,21.9550027 111.485,21.409 C111.112331,20.8629973 110.458005,20.59 109.522,20.59 C108.551328,20.59 107.793003,20.8803304 107.247,21.461 C106.700997,22.0416696 106.428,22.7739956 106.428,23.658 L106.428,30.314 C106.428,30.7646689 106.280668,31.1416651 105.986,31.445 C105.691332,31.7483349 105.318669,31.9 104.868,31.9 C104.417331,31.9 104.044668,31.7483349 103.75,31.445 C103.455332,31.1416651 103.308,30.7646689 103.308,30.314 L103.308,23.658 C103.308,22.7046619 103.121669,21.9550027 102.749,21.409 C102.376331,20.8629973 101.722005,20.59 100.786,20.59 C99.8153285,20.59 99.0570027,20.8803304 98.511,21.461 C97.9649973,22.0416696 97.692,22.7739956 97.692,23.658 L97.692,30.314 C97.692,30.7646689 97.5446681,31.1416651 97.25,31.445 C96.9553319,31.7483349 96.5826689,31.9 96.132,31.9 C95.6813311,31.9 95.3086681,31.7483349 95.014,31.445 C94.7193319,31.1416651 94.572,30.7646689 94.572,30.314 L94.572,19.576 C94.572,19.1253311 94.7193319,18.7483349 95.014,18.445 C95.3086681,18.1416651 95.6813311,17.99 96.132,17.99 C96.5826689,17.99 96.9553319,18.1416651 97.25,18.445 C97.5446681,18.7483349 97.692,19.1253311 97.692,19.576 L97.692,19.992 C98.1600023,19.3679969 98.7536631,18.8350022 99.473,18.393 C100.192337,17.9509978 100.993996,17.73 101.878,17.73 C104.062011,17.73 105.45733,18.6833238 106.064,20.59 C106.462669,19.8619964 107.064996,19.2033363 107.871,18.614 C108.677004,18.0246637 109.591328,17.73 110.614,17.73 Z M129.802,17.73 C130.252669,17.73 130.625332,17.8773319 130.92,18.172 C131.214668,18.4666681 131.362,18.8479977 131.362,19.316 L131.362,30.314 C131.362,30.7646689 131.214668,31.1416651 130.92,31.445 C130.625332,31.7483349 130.252669,31.9 129.802,31.9 C129.351331,31.9 128.983001,31.7526681 128.697,31.458 C128.410999,31.1633319 128.259333,30.7906689 128.242,30.34 C127.808664,30.8426692 127.22367,31.2716649 126.487,31.627 C125.75033,31.9823351 124.974671,32.16 124.16,32.16 C122.963994,32.16 121.880672,31.8523364 120.91,31.237 C119.939328,30.6216636 119.172336,29.7680055 118.609,28.676 C118.045664,27.5839945 117.764,26.3446736 117.764,24.958 C117.764,23.5713264 118.041331,22.3276722 118.596,21.227 C119.150669,20.1263278 119.908995,19.2683364 120.871,18.653 C121.833005,18.0376636 122.894661,17.73 124.056,17.73 C124.888004,17.73 125.667996,17.8816651 126.396,18.185 C127.124004,18.4883348 127.739331,18.8739977 128.242,19.342 L128.242,19.316 C128.242,18.8653311 128.389332,18.4883348 128.684,18.185 C128.978668,17.8816651 129.351331,17.73 129.802,17.73 Z M124.55,29.3 C125.676672,29.3 126.59533,28.8883374 127.306,28.065 C128.01667,27.2416625 128.372,26.2060062 128.372,24.958 C128.372,23.7099938 128.01667,22.6700042 127.306,21.838 C126.59533,21.0059958 125.676672,20.59 124.55,20.59 C123.440661,20.59 122.53067,21.0059958 121.82,21.838 C121.10933,22.6700042 120.754,23.7099938 120.754,24.958 C120.754,26.2060062 121.104996,27.2416625 121.807,28.065 C122.509004,28.8883374 123.423328,29.3 124.55,29.3 Z M141.97,17.73 C142.490003,17.73 142.927665,17.8773319 143.283,18.172 C143.638335,18.4666681 143.816,18.8133313 143.816,19.212 C143.816,19.749336 143.677335,20.152332 143.4,20.421 C143.122665,20.689668 142.793335,20.824 142.412,20.824 C142.203999,20.824 141.973814,20.7851737 141.721441,20.7075202 L141.4344,20.61288 C141.372,20.5941601 141.286201,20.5692002 141.177,20.538 C140.994999,20.4859997 140.800001,20.46 140.592,20.46 C140.141331,20.46 139.708002,20.5986653 139.292,20.876 C138.875998,21.1533347 138.533668,21.5736638 138.265,22.137 C137.996332,22.7003361 137.862,23.3719961 137.862,24.152 L137.862,30.314 C137.862,30.7646689 137.714668,31.1416651 137.42,31.445 C137.125332,31.7483349 136.752669,31.9 136.302,31.9 C135.851331,31.9 135.478668,31.7483349 135.184,31.445 C134.889332,31.1416651 134.742,30.7646689 134.742,30.314 L134.742,19.576 C134.742,19.1253311 134.889332,18.7483349 135.184,18.445 C135.478668,18.1416651 135.851331,17.99 136.302,17.99 C136.752669,17.99 137.125332,18.1416651 137.42,18.445 C137.714668,18.7483349 137.862,19.1253311 137.862,19.576 L137.862,19.914 C138.260669,19.2033298 138.832663,18.6616685 139.578,18.289 C140.323337,17.9163315 141.120662,17.73 141.97,17.73 Z M152.734,28.962 C152.976668,28.962 153.197666,29.0789988 153.397,29.313 C153.596334,29.5470012 153.696,29.8546648 153.696,30.236 C153.696,30.7040023 153.440336,31.0983317 152.929,31.419 C152.417664,31.7396683 151.841337,31.9 151.2,31.9 C150.125328,31.9 149.21967,31.6703356 148.483,31.211 C147.74633,30.7516644 147.378,29.7766741 147.378,28.286 L147.378,21.11 L146.182,21.11 C145.765998,21.11 145.419335,20.9713347 145.142,20.694 C144.864665,20.4166653 144.726,20.0700021 144.726,19.654 C144.726,19.2553313 144.864665,18.921668 145.142,18.653 C145.419335,18.384332 145.765998,18.25 146.182,18.25 L147.378,18.25 L147.378,16.586 C147.378,16.1353311 147.529665,15.7583348 147.833,15.455 C148.136335,15.1516651 148.513331,15 148.964,15 C149.397336,15 149.761332,15.1516651 150.056,15.455 C150.350668,15.7583348 150.498,16.1353311 150.498,16.586 L150.498,18.25 L152.344,18.25 C152.760002,18.25 153.106665,18.3886653 153.384,18.666 C153.661335,18.9433347 153.8,19.2899979 153.8,19.706 C153.8,20.1046687 153.661335,20.438332 153.384,20.707 C153.106665,20.975668 152.760002,21.11 152.344,21.11 L150.498,21.11 L150.498,28.156 C150.498,28.5200018 150.593332,28.7843325 150.784,28.949 C150.974668,29.1136675 151.234665,29.196 151.564,29.196 C151.702667,29.196 151.893332,29.1613337 152.136,29.092 C152.344001,29.0053329 152.543332,28.962 152.734,28.962 Z M166.982,17.99 C167.432669,17.99 167.805332,18.1416651 168.1,18.445 C168.394668,18.7483349 168.542,19.1253311 168.542,19.576 L168.542,30.626 C168.542,32.8793446 167.935339,34.5216615 166.722,35.553 C165.508661,36.5843385 163.88801,37.1 161.86,37.1 C161.270664,37.1 160.668336,37.0523338 160.053,36.957 C159.437664,36.8616662 158.939335,36.7360008 158.558,36.58 C157.708662,36.2159982 157.284,35.7133365 157.284,35.072 C157.284,34.9911107 157.295555,34.9025186 157.318667,34.8062224 L157.362,34.656 C157.466001,34.2746648 157.643665,33.9843343 157.895,33.785 C158.146335,33.5856657 158.419332,33.486 158.714,33.486 C158.887334,33.486 159.051999,33.5119997 159.208,33.564 L159.700916,33.766222 C159.746416,33.7845184 159.794444,33.8037777 159.845,33.824 C160.148335,33.9453339 160.468998,34.0449996 160.807,34.123 C161.145002,34.2010004 161.495998,34.24 161.86,34.24 C163.090673,34.24 163.99633,33.9756693 164.577,33.447 C165.15767,32.9183307 165.448,32.0126731 165.448,30.73 L165.448,30.47 C164.546662,31.5966723 163.142676,32.16 161.236,32.16 C160.334662,32.16 159.537337,31.9476688 158.844,31.523 C158.150663,31.0983312 157.613335,30.5090038 157.232,29.755 C156.850665,29.0009962 156.66,28.1386715 156.66,27.168 L156.66,19.576 C156.66,19.1253311 156.807332,18.7483349 157.102,18.445 C157.396668,18.1416651 157.769331,17.99 158.22,17.99 C158.670669,17.99 159.043332,18.1416651 159.338,18.445 C159.632668,18.7483349 159.78,19.1253311 159.78,19.576 L159.78,26.232 C159.78,27.3240055 160.018331,28.1083309 160.495,28.585 C160.971669,29.0616691 161.669329,29.3 162.588,29.3 C163.489338,29.3 164.186998,29.0356693 164.681,28.507 C165.175002,27.9783307 165.422,27.2200049 165.422,26.232 L165.422,19.576 C165.422,19.1253311 165.569332,18.7483349 165.864,18.445 C166.158668,18.1416651 166.531331,17.99 166.982,17.99 Z" id="smarty"></path>
            <path d="M87.09,47.89 C87.2673342,48.0766676 87.356,48.2866655 87.356,48.52 C87.356,48.7533345 87.2650009,48.9493325 87.083,49.108 C86.9009991,49.2666675 86.7073344,49.346 86.502,49.346 C86.2593321,49.346 86.0540008,49.2526676 85.886,49.066 L83.366,46.406 L82.68,47.036 L82.68,48.506 C82.68,48.7486679 82.6006675,48.9516658 82.442,49.115 C82.2833325,49.2783341 82.0826679,49.36 81.84,49.36 C81.5973321,49.36 81.3966675,49.2783341 81.238,49.115 C81.0793325,48.9516658 81,48.7486679 81,48.506 L81,39.854 C81,39.6113321 81.0793325,39.4083342 81.238,39.245 C81.3966675,39.0816659 81.5973321,39 81.84,39 C82.0826679,39 82.2833325,39.0816659 82.442,39.245 C82.6006675,39.4083342 82.68,39.6113321 82.68,39.854 L82.68,45.034 L85.676,42.136 C85.8533342,41.9586658 86.0586655,41.87 86.292,41.87 C86.4973344,41.87 86.6816659,41.9563325 86.845,42.129 C87.0083342,42.3016675 87.09,42.4766658 87.09,42.654 C87.09,42.8780011 86.9780011,43.087999 86.754,43.284 L84.64,45.23 L87.09,47.89 Z M90.408,48.506 C90.408,48.7486679 90.3286675,48.9516658 90.17,49.115 C90.0113325,49.2783341 89.8106679,49.36 89.568,49.36 C89.3253321,49.36 89.1246675,49.2783341 88.966,49.115 C88.8073325,48.9516658 88.728,48.7486679 88.728,48.506 L88.728,42.724 C88.728,42.4813321 88.8073325,42.2783341 88.966,42.115 C89.1246675,41.9516658 89.3253321,41.87 89.568,41.87 C89.8106679,41.87 90.0113325,41.9516658 90.17,42.115 C90.3286675,42.2783341 90.408,42.4813321 90.408,42.724 L90.408,48.506 Z M89.554,40.96 C89.2366651,40.96 89.0126673,40.9086672 88.882,40.806 C88.7513327,40.7033328 88.686,40.5213346 88.686,40.26 L88.686,39.994 C88.686,39.7326654 88.7559993,39.5506672 88.896,39.448 C89.0360007,39.3453328 89.2599985,39.294 89.568,39.294 C89.8946683,39.294 90.1233327,39.3453328 90.254,39.448 C90.3846673,39.5506672 90.45,39.7326654 90.45,39.994 L90.45,40.26 C90.45,40.530668 90.382334,40.7149995 90.247,40.813 C90.111666,40.9110005 89.8806683,40.96 89.554,40.96 Z M96.134,41.73 C97.0860048,41.73 97.7439982,42.0123305 98.108,42.577 C98.4720018,43.1416695 98.654,43.9233283 98.654,44.922 L98.654,48.506 C98.654,48.7486679 98.5746675,48.9516658 98.416,49.115 C98.2573325,49.2783341 98.0566679,49.36 97.814,49.36 C97.5713321,49.36 97.3706675,49.2783341 97.212,49.115 C97.0533325,48.9516658 96.974,48.7486679 96.974,48.506 L96.974,44.922 C96.974,44.4086641 96.8666677,44.0050015 96.652,43.711 C96.4373323,43.4169985 96.0686693,43.27 95.546,43.27 C95.004664,43.27 94.5800015,43.4263318 94.272,43.739 C93.9639985,44.0516682 93.81,44.4459976 93.81,44.922 L93.81,48.506 C93.81,48.7486679 93.7306675,48.9516658 93.572,49.115 C93.4133325,49.2783341 93.2126679,49.36 92.97,49.36 C92.7273321,49.36 92.5266675,49.2783341 92.368,49.115 C92.2093325,48.9516658 92.13,48.7486679 92.13,48.506 L92.13,42.724 C92.13,42.4813321 92.2093325,42.2783341 92.368,42.115 C92.5266675,41.9516658 92.7273321,41.87 92.97,41.87 C93.2126679,41.87 93.4133325,41.9516658 93.572,42.115 C93.7306675,42.2783341 93.81,42.4813321 93.81,42.724 L93.81,42.962 C94.0620013,42.6259983 94.390998,42.3366679 94.797,42.094 C95.203002,41.8513321 95.6486642,41.73 96.134,41.73 Z M106.536,39 C106.778668,39 106.979333,39.0793325 107.138,39.238 C107.296667,39.3966675 107.376,39.6019987 107.376,39.854 L107.376,48.506 C107.376,48.7486679 107.296667,48.9516658 107.138,49.115 C106.979333,49.2783341 106.778668,49.36 106.536,49.36 C106.293332,49.36 106.095001,49.2806675 105.941,49.122 C105.786999,48.9633325 105.705333,48.7626679 105.696,48.52 C105.462665,48.790668 105.147669,49.0216657 104.751,49.213 C104.354331,49.4043343 103.936669,49.5 103.498,49.5 C102.853997,49.5 102.270669,49.334335 101.748,49.003 C101.225331,48.671665 100.812335,48.2120029 100.509,47.624 C100.205665,47.0359971 100.054,46.3686704 100.054,45.622 C100.054,44.8753296 100.203332,44.2056696 100.502,43.613 C100.800668,43.0203304 101.208997,42.558335 101.727,42.227 C102.245003,41.895665 102.816664,41.73 103.442,41.73 C103.890002,41.73 104.309998,41.8116658 104.702,41.975 C105.094002,42.1383341 105.425332,42.3459987 105.696,42.598 L105.696,39.854 C105.696,39.6113321 105.775333,39.4083342 105.934,39.245 C106.092667,39.0816659 106.293332,39 106.536,39 Z M103.708,47.96 C104.31467,47.96 104.809331,47.7383356 105.192,47.295 C105.574669,46.8516645 105.766,46.2940034 105.766,45.622 C105.766,44.9499966 105.574669,44.3900022 105.192,43.942 C104.809331,43.4939978 104.31467,43.27 103.708,43.27 C103.110664,43.27 102.620669,43.4939978 102.238,43.942 C101.855331,44.3900022 101.664,44.9499966 101.664,45.622 C101.664,46.2940034 101.852998,46.8516645 102.231,47.295 C102.609002,47.7383356 103.10133,47.96 103.708,47.96 Z M115.916,45.44 C115.906667,45.6640011 115.818001,45.8459993 115.65,45.986 C115.481999,46.1260007 115.286001,46.196 115.062,46.196 L110.442,46.196 C110.554001,46.7466694 110.810665,47.1783318 111.212,47.491 C111.613335,47.8036682 112.065997,47.96 112.57,47.96 C112.952669,47.96 113.251332,47.9250003 113.466,47.855 C113.680668,47.7849997 113.850999,47.7103337 113.977,47.631 L114.193562,47.4958125 C114.210187,47.4856042 114.224333,47.477 114.236,47.47 C114.404001,47.3859996 114.562666,47.344 114.712,47.344 C114.908001,47.344 115.075999,47.4139993 115.216,47.554 C115.356001,47.6940007 115.426,47.8573324 115.426,48.044 C115.426,48.2960013 115.295335,48.5246656 115.034,48.73 C114.772665,48.9446677 114.422669,49.1266659 113.984,49.276 C113.545331,49.4253341 113.102002,49.5 112.654,49.5 C111.869996,49.5 111.186336,49.3366683 110.603,49.01 C110.019664,48.6833317 109.569335,48.2330029 109.252,47.659 C108.934665,47.0849971 108.776,46.4386703 108.776,45.72 C108.776,44.9173293 108.943998,44.2126697 109.28,43.606 C109.616002,42.9993303 110.059331,42.5350016 110.61,42.213 C111.160669,41.8909984 111.748664,41.73 112.374,41.73 C112.990003,41.73 113.570997,41.8979983 114.117,42.234 C114.663003,42.5700017 115.099332,43.0226638 115.426,43.592 C115.752668,44.1613362 115.916,44.77733 115.916,45.44 Z M112.374,43.27 C111.291328,43.27 110.652001,43.7786616 110.456,44.796 L114.124,44.796 L114.124,44.698 C114.086666,44.305998 113.895335,43.9700014 113.55,43.69 C113.204665,43.4099986 112.812669,43.27 112.374,43.27 Z M121.208,41.73 C121.488001,41.73 121.723666,41.8093325 121.915,41.968 C122.106334,42.1266675 122.202,42.3133323 122.202,42.528 C122.202,42.8173348 122.127334,43.0343326 121.978,43.179 C121.828666,43.3236674 121.651334,43.396 121.446,43.396 C121.340999,43.396 121.2255,43.3776252 121.0995,43.3408751 L120.781,43.242 L120.781,43.242 C120.683,43.2139999 120.578001,43.2 120.466,43.2 C120.223332,43.2 119.990001,43.2746659 119.766,43.424 C119.541999,43.5733341 119.357667,43.7996651 119.213,44.103 C119.068333,44.4063349 118.996,44.7679979 118.996,45.188 L118.996,48.506 C118.996,48.7486679 118.916667,48.9516658 118.758,49.115 C118.599333,49.2783341 118.398668,49.36 118.156,49.36 C117.913332,49.36 117.712667,49.2783341 117.554,49.115 C117.395333,48.9516658 117.316,48.7486679 117.316,48.506 L117.316,42.724 C117.316,42.4813321 117.395333,42.2783341 117.554,42.115 C117.712667,41.9516658 117.913332,41.87 118.156,41.87 C118.398668,41.87 118.599333,41.9516658 118.758,42.115 C118.916667,42.2783341 118.996,42.4813321 118.996,42.724 L118.996,42.906 C119.210668,42.5233314 119.518665,42.2316677 119.92,42.031 C120.321335,41.8303323 120.750664,41.73 121.208,41.73 Z M129.594,41.73 C129.836668,41.73 130.037333,41.8093325 130.196,41.968 C130.354667,42.1266675 130.434,42.3319987 130.434,42.584 L130.434,48.814 C130.434,49.9526724 130.08167,50.7949973 129.377,51.341 C128.67233,51.8870027 127.778672,52.16 126.696,52.16 C126.415999,52.16 126.031002,52.1133338 125.541,52.02 L125.155856,51.9399999 C124.863952,51.8733333 124.644667,51.806667 124.498,51.74 C124.040664,51.543999 123.812,51.2733351 123.812,50.928 C123.812,50.8844442 123.818222,50.8367408 123.830667,50.784889 L123.854,50.704 C123.91,50.4986656 124.005666,50.3423339 124.141,50.235 C124.276334,50.1276661 124.423333,50.074 124.582,50.074 C124.644223,50.074 124.70437,50.0802222 124.762444,50.0926666 L124.848,50.116 C124.885334,50.1253334 125.116331,50.2116659 125.541,50.375 C125.965669,50.5383341 126.350665,50.62 126.696,50.62 C127.38667,50.62 127.902332,50.4823347 128.243,50.207 C128.583668,49.9316653 128.754,49.5420025 128.754,49.038 L128.754,48.366 C128.548666,48.6553348 128.238335,48.9166655 127.823,49.15 C127.407665,49.3833345 126.962002,49.5 126.486,49.5 C125.832663,49.5 125.237669,49.334335 124.701,49.003 C124.164331,48.671665 123.742002,48.2120029 123.434,47.624 C123.125998,47.0359971 122.972,46.3686704 122.972,45.622 C122.972,44.8753296 123.123665,44.2056696 123.427,43.613 C123.730335,43.0203304 124.145664,42.558335 124.673,42.227 C125.200336,41.895665 125.785997,41.73 126.43,41.73 C126.906002,41.73 127.349331,41.827999 127.76,42.024 C128.170669,42.220001 128.501999,42.4579986 128.754,42.738 L128.754,42.584 C128.754,42.3413321 128.833333,42.1383341 128.992,41.975 C129.150667,41.8116658 129.351332,41.73 129.594,41.73 Z M126.696,47.96 C127.321336,47.96 127.832331,47.7383356 128.229,47.295 C128.625669,46.8516645 128.824,46.2940034 128.824,45.622 C128.824,44.9499966 128.625669,44.3900022 128.229,43.942 C127.832331,43.4939978 127.321336,43.27 126.696,43.27 C126.070664,43.27 125.562002,43.4939978 125.17,43.942 C124.777998,44.3900022 124.582,44.9499966 124.582,45.622 C124.582,46.2940034 124.777998,46.8516645 125.17,47.295 C125.562002,47.7383356 126.070664,47.96 126.696,47.96 Z M138.316,41.73 C138.558668,41.73 138.759333,41.8093325 138.918,41.968 C139.076667,42.1266675 139.156,42.3319987 139.156,42.584 L139.156,48.506 C139.156,48.7486679 139.076667,48.9516658 138.918,49.115 C138.759333,49.2783341 138.558668,49.36 138.316,49.36 C138.073332,49.36 137.875001,49.2806675 137.721,49.122 C137.566999,48.9633325 137.485333,48.7626679 137.476,48.52 C137.242665,48.790668 136.927669,49.0216657 136.531,49.213 C136.134331,49.4043343 135.716669,49.5 135.278,49.5 C134.633997,49.5 134.050669,49.334335 133.528,49.003 C133.005331,48.671665 132.592335,48.2120029 132.289,47.624 C131.985665,47.0359971 131.834,46.3686704 131.834,45.622 C131.834,44.8753296 131.983332,44.2056696 132.282,43.613 C132.580668,43.0203304 132.988997,42.558335 133.507,42.227 C134.025003,41.895665 134.596664,41.73 135.222,41.73 C135.670002,41.73 136.089998,41.8116658 136.482,41.975 C136.874002,42.1383341 137.205332,42.3459987 137.476,42.598 L137.476,42.584 C137.476,42.3413321 137.555333,42.1383341 137.714,41.975 C137.872667,41.8116658 138.073332,41.73 138.316,41.73 Z M135.488,47.96 C136.09467,47.96 136.589331,47.7383356 136.972,47.295 C137.354669,46.8516645 137.546,46.2940034 137.546,45.622 C137.546,44.9499966 137.354669,44.3900022 136.972,43.942 C136.589331,43.4939978 136.09467,43.27 135.488,43.27 C134.890664,43.27 134.400669,43.4939978 134.018,43.942 C133.635331,44.3900022 133.444,44.9499966 133.444,45.622 C133.444,46.2940034 133.632998,46.8516645 134.011,47.295 C134.389002,47.7383356 134.88133,47.96 135.488,47.96 Z M144.868,41.73 C145.148001,41.73 145.383666,41.8093325 145.575,41.968 C145.766334,42.1266675 145.862,42.3133323 145.862,42.528 C145.862,42.8173348 145.787334,43.0343326 145.638,43.179 C145.488666,43.3236674 145.311334,43.396 145.106,43.396 C145.000999,43.396 144.8855,43.3776252 144.7595,43.3408751 L144.441,43.242 L144.441,43.242 C144.343,43.2139999 144.238001,43.2 144.126,43.2 C143.883332,43.2 143.650001,43.2746659 143.426,43.424 C143.201999,43.5733341 143.017667,43.7996651 142.873,44.103 C142.728333,44.4063349 142.656,44.7679979 142.656,45.188 L142.656,48.506 C142.656,48.7486679 142.576667,48.9516658 142.418,49.115 C142.259333,49.2783341 142.058668,49.36 141.816,49.36 C141.573332,49.36 141.372667,49.2783341 141.214,49.115 C141.055333,48.9516658 140.976,48.7486679 140.976,48.506 L140.976,42.724 C140.976,42.4813321 141.055333,42.2783341 141.214,42.115 C141.372667,41.9516658 141.573332,41.87 141.816,41.87 C142.058668,41.87 142.259333,41.9516658 142.418,42.115 C142.576667,42.2783341 142.656,42.4813321 142.656,42.724 L142.656,42.906 C142.870668,42.5233314 143.178665,42.2316677 143.58,42.031 C143.981335,41.8303323 144.410664,41.73 144.868,41.73 Z M150.664,47.778 C150.794667,47.778 150.913666,47.8409994 151.021,47.967 C151.128334,48.0930006 151.182,48.2586656 151.182,48.464 C151.182,48.7160013 151.044335,48.9283325 150.769,49.101 C150.493665,49.2736675 150.183335,49.36 149.838,49.36 C149.25933,49.36 148.771669,49.2363346 148.375,48.989 C147.978331,48.7416654 147.78,48.2166707 147.78,47.414 L147.78,43.55 L147.136,43.55 C146.911999,43.55 146.725334,43.4753341 146.576,43.326 C146.426666,43.1766659 146.352,42.9900011 146.352,42.766 C146.352,42.5513323 146.426666,42.3716674 146.576,42.227 C146.725334,42.0823326 146.911999,42.01 147.136,42.01 L147.78,42.01 L147.78,41.114 C147.78,40.8713321 147.861666,40.6683341 148.025,40.505 C148.188334,40.3416658 148.391332,40.26 148.634,40.26 C148.867335,40.26 149.063333,40.3416658 149.222,40.505 C149.380667,40.6683341 149.46,40.8713321 149.46,41.114 L149.46,42.01 L150.454,42.01 C150.678001,42.01 150.864666,42.0846659 151.014,42.234 C151.163334,42.3833341 151.238,42.5699989 151.238,42.794 C151.238,43.0086677 151.163334,43.1883326 151.014,43.333 C150.864666,43.4776674 150.678001,43.55 150.454,43.55 L149.46,43.55 L149.46,47.344 C149.46,47.540001 149.511333,47.6823329 149.614,47.771 C149.716667,47.8596671 149.856666,47.904 150.034,47.904 C150.108667,47.904 150.211333,47.8853335 150.342,47.848 C150.454001,47.8013331 150.561333,47.778 150.664,47.778 Z M159.498,45.44 C159.488667,45.6640011 159.400001,45.8459993 159.232,45.986 C159.063999,46.1260007 158.868001,46.196 158.644,46.196 L154.024,46.196 C154.136001,46.7466694 154.392665,47.1783318 154.794,47.491 C155.195335,47.8036682 155.647997,47.96 156.152,47.96 C156.534669,47.96 156.833332,47.9250003 157.048,47.855 C157.262668,47.7849997 157.432999,47.7103337 157.559,47.631 L157.775562,47.4958125 C157.792187,47.4856042 157.806333,47.477 157.818,47.47 C157.986001,47.3859996 158.144666,47.344 158.294,47.344 C158.490001,47.344 158.657999,47.4139993 158.798,47.554 C158.938001,47.6940007 159.008,47.8573324 159.008,48.044 C159.008,48.2960013 158.877335,48.5246656 158.616,48.73 C158.354665,48.9446677 158.004669,49.1266659 157.566,49.276 C157.127331,49.4253341 156.684002,49.5 156.236,49.5 C155.451996,49.5 154.768336,49.3366683 154.185,49.01 C153.601664,48.6833317 153.151335,48.2330029 152.834,47.659 C152.516665,47.0849971 152.358,46.4386703 152.358,45.72 C152.358,44.9173293 152.525998,44.2126697 152.862,43.606 C153.198002,42.9993303 153.641331,42.5350016 154.192,42.213 C154.742669,41.8909984 155.330664,41.73 155.956,41.73 C156.572003,41.73 157.152997,41.8979983 157.699,42.234 C158.245003,42.5700017 158.681332,43.0226638 159.008,43.592 C159.334668,44.1613362 159.498,44.77733 159.498,45.44 Z M155.956,43.27 C154.873328,43.27 154.234001,43.7786616 154.038,44.796 L157.706,44.796 L157.706,44.698 C157.668666,44.305998 157.477335,43.9700014 157.132,43.69 C156.786665,43.4099986 156.394669,43.27 155.956,43.27 Z M164.902,41.73 C165.854005,41.73 166.511998,42.0123305 166.876,42.577 C167.240002,43.1416695 167.422,43.9233283 167.422,44.922 L167.422,48.506 C167.422,48.7486679 167.342667,48.9516658 167.184,49.115 C167.025333,49.2783341 166.824668,49.36 166.582,49.36 C166.339332,49.36 166.138667,49.2783341 165.98,49.115 C165.821333,48.9516658 165.742,48.7486679 165.742,48.506 L165.742,44.922 C165.742,44.4086641 165.634668,44.0050015 165.42,43.711 C165.205332,43.4169985 164.836669,43.27 164.314,43.27 C163.772664,43.27 163.348002,43.4263318 163.04,43.739 C162.731998,44.0516682 162.578,44.4459976 162.578,44.922 L162.578,48.506 C162.578,48.7486679 162.498667,48.9516658 162.34,49.115 C162.181333,49.2783341 161.980668,49.36 161.738,49.36 C161.495332,49.36 161.294667,49.2783341 161.136,49.115 C160.977333,48.9516658 160.898,48.7486679 160.898,48.506 L160.898,42.724 C160.898,42.4813321 160.977333,42.2783341 161.136,42.115 C161.294667,41.9516658 161.495332,41.87 161.738,41.87 C161.980668,41.87 162.181333,41.9516658 162.34,42.115 C162.498667,42.2783341 162.578,42.4813321 162.578,42.724 L162.578,42.962 C162.830001,42.6259983 163.158998,42.3366679 163.565,42.094 C163.971002,41.8513321 164.416664,41.73 164.902,41.73 Z" id="kindergarten"></path>
        </g>
    </g>
</svg>